<svg width="72" height="72" viewBox="0 0 72 72" fill="none" xmlns="http://www.w3.org/2000/svg">
<path d="M36 4.5C27.6769 4.60042 19.7229 7.9514 13.8372 13.8372C7.9514 19.7229 4.60042 27.6769 4.5 36C4.60042 44.3231 7.9514 52.2771 13.8372 58.1628C19.7229 64.0486 27.6769 67.3996 36 67.5C44.3231 67.3996 52.2771 64.0486 58.1628 58.1628C64.0486 52.2771 67.3996 44.3231 67.5 36C67.3996 27.6769 64.0486 19.7229 58.1628 13.8372C52.2771 7.9514 44.3231 4.60042 36 4.5ZM54 38.25H38.25V54H33.75V38.25H18V33.75H33.75V18H38.25V33.75H54V38.25Z" fill="black"/>
</svg>
